<svg id="Layer_1" data-name="Layer 1" xmlns="http://www.w3.org/2000/svg" viewBox="0 0 147.75 75.74"><defs><style>.cls-1{fill:#107c80;opacity:0.25;}</style></defs><title>pattern</title><path class="cls-1" d="M1494.21,65.36l10.9-11.71-5.61-6.11L1495.34,61l-10.58-10.12,14.3-13.59a5.34,5.34,0,0,1,1.13.43c18.92,15.06,18.85,15,2.12,32-2.5,2.53-4.11,5.94-7.22,10.55-9-9.48-16-16.54-22.55-23.91-1.29-1.44-1.65-4.1-1.67-6.2-0.16-12.76.05-25.53-.17-38.29-0.09-5.31,1.87-7.46,7.28-7.33,12.48,0.3,25,.07,37.45.41a12.79,12.79,0,0,1,7.47,2.7c6.92,5.94,13.46,12.33,19.89,18.32l-24.48,23.68c-1.24-1.18-3.46-3.2-5.57-5.32-12.55-12.55-12.3-14.24,4.72-25.12l6.06,10.58-8.87,3.7,4.74,5.62c2.25-2,4.14-3.53,5.86-5.23s3.32-3.62,4.88-5.34c-8.64-14.12-25.69-21.3-39.83-14.44-3.92,1.91-12.56,6.09-11.18,14.87a24.29,24.29,0,0,1,0,8.3C1476.46,50.71,1484.62,58.17,1494.21,65.36Z" transform="translate(-1395.05 -4.51)"/><path class="cls-1" d="M1438.71,36.39l13.88,14-9.77,7.34L1438,48.4l-6.12,4.9,12.86,10.91c6.69-5.77,14.76-11.16,14.18-24.17-0.45-10.28-1.34-19.23-10.84-26.56-25-2.93-30-1.28-42.45,15.21l11.52,10.54,5.92-5.52-9.67-4.91,7.18-10.27,12.53,15.9-16.17,14.73L1395,26.58c6.22-6.06,13.21-13.05,20.46-19.76,1.22-1.13,3.59-1.41,5.43-1.44,13.06-.18,26.13,0,39.18-0.36,5.3-.15,6.72,2.06,6.65,6.88-0.18,12.22.16,24.46-.22,36.68a15.87,15.87,0,0,1-3.38,8.88c-5.57,6.86-11.71,13.26-17.55,19.74l-24-24.3Z" transform="translate(-1395.05 -4.51)"/></svg>